# xmcd
#
# Track frame offsets: 
#        150
#        20410
#        42670
#        59770
#        106387
#        136105
#        161995
#
# Disc length: 2766 seconds
#
# Revision: 8
# Processed by: cddbd v1.5.2PL0 Copyright (c) Steve Scherf et al.
# Submitted via: ExactAudioCopy v0.99pb4
#
DISCID=630acc07
DTITLE=Albert King - Blues At Sunrise 
DYEAR=1973
DGENRE=Blues
TTITLE0=Don't Burn Down The Bridge ('Cause You Might Wanna Come Back A
TTITLE0=cross)
TTITLE1=I Believe To My Soul
TTITLE2=For The Love Of A Woman
TTITLE3=Blues At Sunrise
TTITLE4=I'll Play The Blues For You
TTITLE5=Little Brother (Make A Way)
TTITLE6=Roadhouse Blues
EXTD=© 1988\nLabel: Fantasy Inc. - Stax Records\nSCD-8546-2
EXTT0=
EXTT1=
EXTT2=
EXTT3=
EXTT4=
EXTT5=
EXTT6=
PLAYORDER=
